# xmcd
#
# Track frame offsets: 
#        150
#        16127
#        32985
#        55654
#        70716
#        88969
#        107222
#        126571
#        148431
#        168512
#        185555
#        203693
#
# Disc length: 2962 seconds
#
# Revision: 0
# Processed by: cddbd v1.5.2PL0 Copyright (c) Steve Scherf et al.
# Submitted via: ExactAudioCopy v1.3
#
DISCID=b40b900c
DTITLE=Mark Crissinger - Blues Expression
DYEAR=2015
DGENRE=Juke Joint Blues
TTITLE0=Celebration Blues
TTITLE1=Shake A Leg
TTITLE2=In Love With A Liar
TTITLE3=Caught In The Middle
TTITLE4=5000 Miles
TTITLE5=I Love To Eat
TTITLE6=My Kind Of Woman
TTITLE7=Blues Expression
TTITLE8=Love Your Soul
TTITLE9=Slice Of Life
TTITLE10=I Love You, Baby
TTITLE11=Set Me Free
EXTD=
EXTT0=
EXTT1=
EXTT2=
EXTT3=
EXTT4=
EXTT5=
EXTT6=
EXTT7=
EXTT8=
EXTT9=
EXTT10=
EXTT11=
PLAYORDER=
